<svg xmlns="http://www.w3.org/2000/svg" viewBox="0 0 327.7 143.8"><defs><style>.cls-1{fill:#fff;}.cls-2{fill:#f16623;}</style></defs><title>mg_logo</title><g id="Layer_2" data-name="Layer 2"><g id="Layer_1-2" data-name="Layer 1"><path class="cls-1" d="M318.85,126.92c8.85,0,8.85-6.54,8.85-13.25s0-13.26-8.85-13.26S310,106.88,310,113.67,310,126.92,318.85,126.92Zm0-3.83c-3,0-3.41-2.85-3.41-9.42s.39-9.42,3.41-9.42,3.41,2.84,3.41,9.42S321.87,123.09,318.85,123.09Zm-17.62,3.83c5,0,7.74-2.2,7.74-9.06h-5.29c-.07,2,0,5.23-2.45,5.23-3,0-3.41-2.85-3.41-9.42s.39-9.42,3.41-9.42c1.6,0,2.2,1.28,2.2,4.69h5.26c.21-5.5-2-8.53-7.46-8.53-8.85,0-8.85,6.47-8.85,13.26S292.38,126.92,301.23,126.92Zm-17.62,0c5,0,7.74-2.2,7.74-9.06h-5.29c-.07,2,0,5.23-2.45,5.23-3,0-3.42-2.85-3.42-9.42s.4-9.42,3.42-9.42c1.59,0,2.2,1.28,2.2,4.69h5.26c.21-5.5-2-8.53-7.46-8.53-8.85,0-8.85,6.47-8.85,13.26S274.76,126.92,283.61,126.92Zm-9.95-.43v-3.94h-8.92v-7.49h8v-4h-8v-6.33h8.63v-3.94h-14v25.65ZM247,115.87h1.39c4.12,0,3.83,2.6,3.83,5.65a11.75,11.75,0,0,0,.57,5h5.26c-.5-1.06-.6-5.89-.6-7.53,0-4.62-3.49-4.9-4.66-5v-.07c3.48-.57,4.76-3,4.76-6.29,0-4.37-2.34-6.72-6-6.72h-9.91v25.65H247Zm0-11.09h2.38c1.71,0,2.74.93,2.74,3.38,0,1.64-.61,3.77-2.74,3.77H247Zm-7.78,4c.32-5.36-2.95-8.32-8.21-8.32-8.77,0-9.09,6.58-9.09,13,0,9.73,1,13.46,10,13.46a49.73,49.73,0,0,0,7.25-.85v-13H231V117h2.92v5.68a8.31,8.31,0,0,1-2.67.5c-3.06,0-3.84-1.42-3.84-9.45,0-5,0-9.49,3.34-9.49,2.84,0,3.24,2.1,3.2,4.48ZM222,126.49v-4.26h-8V100.84h-5.36v25.65Zm-14.78,0v-3.94h-8.91v-7.49h7.95v-4h-7.95v-6.33h8.63v-3.94h-14v25.65Zm-22.88-9.62h-5.11l2.45-11.09h.07Zm-7.64,9.62,1.46-5.68h7.32l1.42,5.68h5.65l-7-25.65h-7.06l-7.11,25.65Zm-17.37-15.38V100.84h-5.37v25.65h5.37V115.06h6.15v11.43h5.36V100.84h-5.36v10.27Zm-14.57,15.81c5,0,7.75-2.2,7.75-9.06h-5.3c-.07,2,0,5.23-2.45,5.23-3,0-3.41-2.85-3.41-9.42s.39-9.42,3.41-9.42c1.6,0,2.21,1.28,2.21,4.69h5.25c.22-5.5-2-8.53-7.46-8.53-8.85,0-8.85,6.47-8.85,13.26S135.87,126.92,144.72,126.92Zm-11-.43V100.84h-5.36v25.65Zm-27.71,0V106.71h.07l4.69,19.78h5.12l4.94-19.78h.07v19.78h5.22V100.84h-8.35l-4.26,17.45h-.07l-4-17.45h-8.63v25.65Z"/><path class="cls-2" d="M6.85,71.36H6.74v29.48h7.1Zm23,0-7.36,29.48H30V71.36Zm70.94,29.48V0H0V62.2H12.07l6.28,27.27h.11L25.12,62.2H38.17v38.64H46.8c-4.7-2.84-5.52-8.75-5.52-18.93s.5-20.38,14.22-20.38c8.22,0,13.33,4.61,12.84,13H60c.06-3.73-.55-7-5-7-5.22,0-5.22,7-5.22,14.83,0,12.55,1.23,14.77,6,14.77A13.06,13.06,0,0,0,60,96.35V87.47H55.39V81.3h13v19.54Z"/><path class="cls-1" d="M100.75,129.74H105a3.67,3.67,0,0,1,3.7,2.1,14.32,14.32,0,0,1,.61,4.35c0,2.94-.26,4.63-.84,5.55-.74,1.18-2.13,1.77-4.54,1.77h-3.16ZM102.5,142h1.66c2.44,0,3.34-.92,3.34-4.12v-2.79c0-2.78-.86-3.81-2.69-3.81H102.5Z"/><path class="cls-1" d="M114.35,143.51h-1.76V129.74h1.76Z"/><path class="cls-1" d="M119.38,137.18v6.33h-1.75V129.74h4.75c2.44,0,3.29,1.72,3.29,3.44a3,3,0,0,1-2.51,3.14v0c1.58.25,2.15.78,2.25,3.55a21.6,21.6,0,0,0,.47,3.6h-1.83c-.49-.95-.38-2.74-.53-4.58a1.82,1.82,0,0,0-2.08-1.75Zm0-1.52H122c1.26,0,1.87-1.09,1.87-2.29a1.87,1.87,0,0,0-1.85-2.1h-2.65Z"/><path class="cls-1" d="M128.27,143.51V129.74h7.09v1.53H130v4.42h5v1.53h-5V142h5.46v1.52Z"/><path class="cls-1" d="M143.87,133.54a3.21,3.21,0,0,0-.4-2,2.28,2.28,0,0,0-1.55-.59,2.15,2.15,0,0,0-2.08,1.06c-.05.16-.4.5-.4,2.86v3.68c0,3.38,1.11,3.78,2.46,3.78.54,0,2.16-.19,2.18-2.88h1.81c.08,4.35-3,4.35-3.89,4.35-1.72,0-4.35-.12-4.35-5.46v-3.89c0-3.88,1.72-5,4.43-5s3.77,1.41,3.6,4.08Z"/><path class="cls-1" d="M156.13,129.74v1.53h-3.62v12.24h-1.76V131.27h-3.62v-1.53Z"/><path class="cls-1" d="M157.89,138.48V134c0-2.75,1.41-4.5,4.32-4.5s4.33,1.75,4.33,4.5v4.52c0,3.81-1.41,5.32-4.33,5.32S157.89,142.29,157.89,138.48Zm6.86.07V133.9c0-2.88-2-3-2.54-3s-2.53.09-2.53,3v4.65c0,3,.88,3.78,2.53,3.78S164.75,141.57,164.75,138.55Z"/><path class="cls-1" d="M171.31,137.18v6.33h-1.75V129.74h4.74c2.45,0,3.3,1.72,3.3,3.44a3,3,0,0,1-2.51,3.14v0c1.58.25,2.15.78,2.25,3.55a21.6,21.6,0,0,0,.47,3.6H176c-.49-.95-.38-2.74-.53-4.58a1.82,1.82,0,0,0-2.08-1.75Zm0-1.52h2.63c1.26,0,1.87-1.09,1.87-2.29a1.87,1.87,0,0,0-1.85-2.1h-2.65Z"/><path class="cls-1" d="M187.24,133.13h.86v3.2h3.19v.87H188.1v3.21h-.86V137.2h-3.19v-.87h3.19Z"/><path class="cls-1" d="M198.45,143.51V129.74h4.08c1.85,0,3.84.69,3.84,3.93a3.57,3.57,0,0,1-3.86,3.78h-2.3v6.06Zm1.76-7.59h1.92a2.18,2.18,0,0,0,2.44-2.34c0-2.1-1.56-2.31-1.94-2.31h-2.42Z"/><path class="cls-1" d="M208.94,143.51V129.74h1.76v5.95h4.82v-5.95h1.75v13.77h-1.75v-6.29H210.7v6.29Z"/><path class="cls-1" d="M220.42,138.48V134c0-2.75,1.41-4.5,4.33-4.5s4.33,1.75,4.33,4.5v4.52c0,3.81-1.41,5.32-4.33,5.32S220.42,142.29,220.42,138.48Zm6.87.07V133.9c0-2.88-2-3-2.54-3s-2.53.09-2.53,3v4.65c0,3,.87,3.78,2.53,3.78S227.29,141.57,227.29,138.55Z"/><path class="cls-1" d="M239.85,129.74v1.53h-3.62v12.24h-1.75V131.27h-3.63v-1.53Z"/><path class="cls-1" d="M241.61,138.48V134c0-2.75,1.41-4.5,4.33-4.5s4.33,1.75,4.33,4.5v4.52c0,3.81-1.41,5.32-4.33,5.32S241.61,142.29,241.61,138.48Zm6.86.07V133.9c0-2.88-2-3-2.53-3s-2.54.09-2.54,3v4.65c0,3,.88,3.78,2.54,3.78S248.47,141.57,248.47,138.55Z"/><path class="cls-1" d="M259.92,133.42c0-1.62-.67-2.49-2.44-2.49-.56,0-2.54.09-2.54,3v4.65c0,3,.88,3.78,2.54,3.78a4.37,4.37,0,0,0,2.46-.61V137.6H257.4v-1.52h4.29v6.69a8.47,8.47,0,0,1-4.21,1c-2.92,0-4.33-1.51-4.33-5.32V134c0-2.75,1.41-4.5,4.33-4.5s4.38,1.09,4.27,4Z"/><path class="cls-1" d="M266.69,137.18v6.33h-1.76V129.74h4.75a3.11,3.11,0,0,1,3.3,3.44,3,3,0,0,1-2.52,3.14v0c1.59.25,2.16.78,2.25,3.55a20.69,20.69,0,0,0,.48,3.6h-1.83c-.5-.95-.38-2.74-.53-4.58a1.82,1.82,0,0,0-2.08-1.75Zm0-1.52h2.63c1.26,0,1.87-1.09,1.87-2.29a1.88,1.88,0,0,0-1.85-2.1h-2.65Z"/><path class="cls-1" d="M278.68,129.74h2.23l4.48,13.77h-2l-1-3.28h-5.32l-1,3.28h-1.77Zm1.07,1.63h0l-2.15,7.34H282Z"/><path class="cls-1" d="M287.46,143.51V129.74h4.08c1.85,0,3.83.69,3.83,3.93a3.56,3.56,0,0,1-3.85,3.78h-2.31v6.06Zm1.75-7.59h1.93a2.19,2.19,0,0,0,2.44-2.34,2,2,0,0,0-1.95-2.31h-2.42Z"/><path class="cls-1" d="M298,143.51V129.74h1.75v5.95h4.82v-5.95h1.76v13.77h-1.76v-6.29H299.7v6.29Z"/><path class="cls-1" d="M309.48,143.51V129.74h7.1v1.53h-5.34v4.42h5v1.53h-5V142h5.45v1.52Z"/><path class="cls-1" d="M320.73,137.18v6.33H319V129.74h4.75a3.11,3.11,0,0,1,3.3,3.44,3,3,0,0,1-2.52,3.14v0c1.58.25,2.16.78,2.25,3.55a20.69,20.69,0,0,0,.48,3.6h-1.83c-.5-.95-.38-2.74-.54-4.58a1.81,1.81,0,0,0-2.08-1.75Zm0-1.52h2.64c1.25,0,1.86-1.09,1.86-2.29a1.87,1.87,0,0,0-1.84-2.1h-2.66Z"/></g></g></svg>